<svg version="1.1" id="Layer_1" xmlns="http://www.w3.org/2000/svg" xmlns:xlink="http://www.w3.org/1999/xlink" x="0px" y="0px"
	 width="100%" viewBox="0 0 1024 672" enable-background="new 0 0 1024 672" xml:space="preserve">
<path fill="#000000" opacity="1.000000" stroke="none" 
	d="
M866.964966,575.047485 
	C881.464661,592.051453 895.760193,608.762939 909.952393,625.561707 
	C911.228394,627.072205 913.620178,628.368347 912.597412,631.017212 
	C911.289124,634.405273 908.161987,634.558044 905.368347,631.283081 
	C888.932190,612.015076 872.532837,592.715698 856.126221,573.422485 
	C838.100708,552.225403 820.078918,531.025208 802.063965,509.819153 
	C801.207397,508.810822 800.433228,507.732483 799.302002,506.276703 
	C794.876648,511.657532 792.534790,517.329041 789.754517,522.709534 
	C772.323975,556.442261 756.978149,591.243530 737.775574,624.069458 
	C735.421143,628.094299 733.305237,632.259521 730.922424,636.266663 
	C729.561462,638.555481 727.873657,641.333618 724.705872,639.741699 
	C721.309509,638.034912 722.339172,634.901489 723.751404,632.338440 
	C730.021423,620.958557 736.772827,609.830200 742.694580,598.274902 
	C755.837036,572.629822 768.546021,546.762939 781.521362,521.031677 
	C785.270630,513.596497 789.299805,506.301575 793.257507,498.973083 
	C794.222168,497.186829 794.977539,495.500214 794.749451,493.330078 
	C792.784180,474.632935 792.107483,455.843842 790.806580,437.099060 
	C789.091187,412.381226 788.017761,387.580200 783.539795,363.141693 
	C782.581421,357.911469 782.120361,352.340790 776.427002,349.000305 
	C774.217957,347.704163 772.324219,347.175354 770.040588,347.195770 
	C760.696594,347.279236 751.297241,347.746643 743.069458,341.978912 
	C742.466797,341.556427 741.440308,341.430328 740.689575,341.574951 
	C733.426880,342.974396 728.292847,338.956970 723.192688,334.821808 
	C701.768799,317.451691 691.704346,294.017731 685.623291,267.778412 
	C680.944519,247.589569 684.110291,228.833649 691.003296,210.081543 
	C691.995178,207.383209 693.472168,204.928345 695.414368,202.871994 
	C708.870178,188.625290 723.505981,175.708649 740.956177,166.608902 
	C764.278198,154.447098 789.106628,152.076508 814.768616,157.037918 
	C816.053467,157.286331 817.294922,157.984299 819.311279,157.123077 
	C820.179688,153.183716 818.561584,149.026474 818.390686,144.852692 
	C818.334717,143.485550 816.872742,143.356079 815.680176,143.152283 
	C814.052185,142.874054 812.359375,142.642792 810.864502,141.997223 
	C808.706970,141.065475 807.295837,139.318878 807.992493,136.825806 
	C808.636658,134.520737 810.634216,133.711578 812.751099,134.265366 
	C817.623474,135.539993 817.797729,132.986328 817.043213,129.424988 
	C816.497131,126.847321 817.221313,124.098755 815.778076,121.616341 
	C814.199463,118.900887 814.284424,116.274490 817.653992,115.149315 
	C820.804199,114.097366 823.463257,115.396683 824.298279,118.644669 
	C825.119080,121.837593 825.220337,125.212288 825.697815,128.498428 
	C825.861633,129.625961 826.208069,130.726974 826.445984,131.733658 
	C828.616150,132.622910 830.315186,131.680695 831.935730,131.004471 
	C843.190491,126.308121 854.003906,120.842178 863.739319,113.349556 
	C868.651367,109.569031 870.320923,105.002167 869.398743,98.944054 
	C866.301147,78.595764 855.045349,66.233124 836.252563,62.886570 
	C823.789307,60.667152 806.625610,68.882660 800.370605,80.021576 
	C799.728333,81.165344 799.020935,82.362038 798.062134,83.219185 
	C796.320984,84.775642 794.232788,85.415726 792.163147,83.814537 
	C790.065552,82.191765 789.381592,80.049141 790.796814,77.642830 
	C798.372253,64.762306 795.266846,51.338253 791.740845,38.441483 
	C789.352173,29.704412 780.791077,27.244761 772.570740,26.463909 
	C756.017334,24.891502 742.748901,32.027958 731.559326,43.443924 
	C724.042358,51.113037 725.043640,60.306610 727.947327,69.665421 
	C728.808533,72.440956 731.775208,75.600060 728.144348,78.264351 
	C724.452881,80.973091 721.878357,77.597771 719.440857,75.649040 
	C708.578552,66.965126 696.635376,63.895069 682.920715,67.195770 
	C676.268372,68.796799 670.918274,71.902451 666.682922,77.151817 
	C662.054688,82.888130 658.330444,89.168900 655.191772,95.827881 
	C652.134766,102.313461 652.748169,108.685829 656.602661,114.386177 
	C663.937561,125.233574 673.017395,134.108536 686.227966,137.574356 
	C688.115540,138.069580 689.879639,139.076370 691.530396,136.755157 
	C693.856079,133.484970 696.728455,134.402100 699.308655,136.509766 
	C703.125854,139.627930 705.647034,143.781097 707.871155,148.088943 
	C711.933655,155.957443 714.662720,164.376114 717.736328,172.646744 
	C718.646973,175.096939 718.949951,177.882263 715.851746,178.989883 
	C712.887512,180.049576 711.149963,177.980606 710.139038,175.485672 
	C707.137207,168.077225 704.189331,160.646088 701.311218,153.188766 
	C700.050171,149.921097 698.072815,148.698715 694.350525,148.101166 
	C673.880554,144.815048 658.308044,133.938614 648.011902,115.948975 
	C643.122925,107.406876 644.377991,98.577370 648.648315,90.080452 
	C651.346313,84.711929 654.587097,79.654152 658.189819,74.846695 
	C670.721313,58.125057 693.226685,52.626755 712.251404,61.565380 
	C713.712036,62.251656 715.037842,63.439396 716.971619,63.146969 
	C717.176697,62.757500 717.626221,62.314804 717.581055,61.930233 
	C715.771790,46.529194 724.435608,36.775707 735.864868,28.850889 
	C749.272217,19.554510 763.948486,15.033057 780.293884,19.481569 
	C793.180359,22.988728 800.662659,31.191181 802.288940,44.820415 
	C803.011414,50.876137 802.919006,56.998661 803.537354,63.006443 
	C806.331970,63.372902 807.718018,61.673206 809.343262,60.677876 
	C840.707764,41.469280 876.573120,68.414452 877.485596,98.397179 
	C877.808105,108.994225 874.281860,116.190857 865.945190,122.072647 
	C855.646545,129.338684 844.624084,135.169189 832.760864,139.203735 
	C827.937378,140.844116 826.497375,143.298309 827.194092,147.975067 
	C827.799622,152.040131 829.147705,156.173676 826.767700,160.069992 
	C829.157898,162.611771 832.260071,163.134750 834.795532,164.650146 
	C863.312988,181.694733 880.318298,206.060837 884.424194,239.556198 
	C887.456177,264.290466 877.963989,284.531677 864.116577,303.516235 
	C857.757141,312.234894 851.634583,321.497406 842.403198,327.468384 
	C827.149597,337.334595 810.324951,343.460754 792.334229,346.246826 
	C790.866333,346.474152 789.313904,346.367371 787.886780,348.022217 
	C793.447998,364.745117 795.298279,382.366821 796.389893,400.286102 
	C830.922485,370.448853 871.280640,354.591919 915.599365,347.717163 
	C922.674316,346.619659 929.726196,345.374023 936.791382,344.213257 
	C937.940369,344.024475 939.099609,343.857849 940.260498,343.790955 
	C943.052917,343.630066 946.096985,343.784912 946.511658,347.198486 
	C946.935791,350.689117 943.793396,351.487732 941.178467,351.951965 
	C930.526550,353.842896 919.847900,355.583710 909.174500,357.352722 
	C872.512939,363.429016 839.152588,377.243958 809.561768,399.871155 
	C806.918335,401.892517 804.461365,404.155975 801.877869,406.258057 
	C800.561218,407.329346 799.190918,408.514679 797.176208,406.161194 
	C797.993591,419.717773 798.716492,432.460266 799.542847,445.196075 
	C800.350586,457.645630 801.581970,470.078247 801.979492,482.538971 
	C802.146484,487.771851 804.451050,492.837372 802.769165,498.301300 
	C802.216675,500.096130 804.866821,501.888947 806.257263,503.528198 
	C826.407776,527.285156 846.572021,551.030518 866.964966,575.047485 
M836.356018,321.886749 
	C846.726929,314.692505 853.557068,304.290680 860.647156,294.280609 
	C872.207886,277.958740 878.463806,260.320892 876.037170,239.512680 
	C872.786621,211.639847 859.054199,190.927917 836.646057,175.329163 
	C818.947937,163.009201 798.880981,161.917282 778.198181,163.689835 
	C755.346985,165.648224 737.009460,176.951477 719.863159,190.907654 
	C712.500122,196.900757 704.078735,202.632324 699.988220,211.011566 
	C693.567444,224.164368 689.664551,238.512283 691.621338,253.556107 
	C693.256592,266.127289 696.643921,278.316742 700.680847,290.329224 
	C706.306946,307.070526 717.671204,319.487671 730.905884,330.456635 
	C733.709778,332.780518 736.850891,334.935425 740.869141,332.530029 
	C742.290039,331.679443 743.886353,332.049011 744.982544,333.278473 
	C749.004700,337.789246 754.423706,338.632324 759.944885,338.811035 
	C766.764282,339.031738 773.596985,338.815948 780.423706,338.843933 
	C800.549377,338.926422 818.397705,331.416168 836.356018,321.886749 
z"/>
<path fill="#000000" opacity="1.000000" stroke="none" 
	d="
M285.921509,470.167633 
	C287.416382,463.728577 286.145172,458.421173 281.486359,454.038086 
	C279.339081,455.012024 279.579926,456.910309 279.034332,458.385956 
	C278.262970,460.472198 277.484406,462.846985 274.630859,462.010162 
	C271.854309,461.195892 272.281342,458.744385 272.719086,456.568115 
	C273.108551,454.631775 273.613617,452.718689 274.157471,450.415009 
	C268.411896,447.740814 262.475220,445.600861 256.436951,445.435791 
	C226.434814,444.615570 196.730698,446.624176 168.902710,459.298920 
	C149.956604,467.928253 131.948242,478.438232 113.577271,488.215332 
	C112.696655,488.684021 111.889618,489.296997 110.993500,489.729095 
	C109.512978,490.442932 108.020378,490.475769 106.948097,489.046021 
	C105.874962,487.615051 106.283875,486.130890 107.437569,484.981232 
	C108.488632,483.933868 109.654060,482.906006 110.953415,482.217377 
	C132.128830,470.995087 152.648911,458.432007 175.054596,449.694489 
	C190.500397,443.671143 206.671844,440.504761 223.227417,439.384430 
	C224.547958,439.295074 225.855331,439.011017 227.117767,438.824921 
	C234.602173,418.858948 245.016876,400.937683 260.743805,386.354950 
	C276.915466,371.359772 294.282806,357.963440 312.816650,346.011658 
	C325.204926,338.022888 338.851471,333.481873 353.032257,330.148529 
	C355.942688,329.464417 358.557312,328.419312 360.686615,325.887238 
	C364.573578,321.264984 373.973969,321.550751 378.299835,326.050079 
	C382.726837,330.654602 382.444611,336.580261 376.756744,341.286560 
	C370.223969,346.691925 363.218140,351.533356 356.339142,356.511078 
	C337.780334,369.940521 323.744629,387.815338 308.602844,404.638580 
	C298.538208,415.820831 291.245605,428.571472 285.070740,442.132568 
	C283.729156,445.078918 283.702454,446.927765 286.258240,449.424896 
	C294.284454,457.267029 295.567596,467.707031 289.895081,477.247498 
	C288.324097,479.889679 288.055695,482.429138 288.265198,485.325378 
	C289.622101,504.086029 285.973907,521.735901 276.310242,538.004211 
	C275.717560,539.001953 275.089813,540.008362 274.313141,540.860107 
	C273.219666,542.059143 271.825775,542.611755 270.288818,541.679810 
	C268.779755,540.764771 268.457611,539.292175 269.083435,537.762756 
	C269.646240,536.387329 270.497742,535.129089 271.231781,533.824707 
	C279.034973,519.958435 282.216095,505.001678 281.741852,489.189087 
	C281.723755,488.586487 281.472076,487.990906 281.310089,487.311798 
	C278.606415,487.783661 277.168915,489.800140 275.259796,491.024872 
	C236.147522,516.116150 193.787308,530.169006 146.911362,527.992920 
	C131.839081,527.293274 116.863403,525.044128 102.458054,517.554199 
	C105.921661,529.007935 111.126213,538.660767 118.846382,546.925415 
	C120.778534,548.993835 122.857330,550.924622 124.844376,552.942627 
	C126.209831,554.329407 127.339645,555.935120 125.740562,557.731201 
	C124.051308,559.628540 122.088051,558.995911 120.414772,557.580994 
	C115.686340,553.582581 111.531807,549.027405 107.937378,543.995239 
	C102.467529,536.337402 98.717094,527.819580 95.634216,518.969971 
	C94.483459,515.666687 95.346390,512.220276 94.454262,508.776764 
	C93.701706,505.872040 96.674202,505.081909 99.224403,506.555054 
	C101.086060,507.630432 102.720512,509.097992 104.461510,510.383575 
	C114.734344,517.969177 127.082596,519.097534 139.017899,520.602173 
	C180.107544,525.782104 217.735428,513.558105 254.165009,496.298157 
	C262.302979,492.442474 269.657166,487.181030 276.779053,481.659210 
	C279.102570,479.857758 280.536041,477.893921 278.225861,474.958771 
	C276.945709,473.332336 276.084320,471.263855 278.066742,469.598633 
	C280.085876,467.902588 281.796021,469.263000 283.244568,470.782166 
	C284.296844,471.885742 285.138031,472.118622 285.921509,470.167633 
M249.688187,409.170990 
	C243.742279,418.296570 237.845734,427.445892 235.034088,438.455139 
	C236.285095,438.608429 236.935913,438.779449 237.578751,438.753479 
	C249.942108,438.254242 262.251160,438.236206 273.987610,443.019012 
	C276.893829,444.203369 277.795776,442.317566 278.790131,440.235748 
	C281.515900,434.529053 283.719330,428.460785 287.189270,423.239990 
	C308.673889,390.914398 334.568634,362.763428 366.787933,340.762115 
	C369.271729,339.066010 371.712952,337.352783 373.576263,334.932861 
	C374.843689,333.286774 374.631378,331.851410 373.073853,330.600616 
	C371.657532,329.463165 369.980835,328.786346 368.699493,330.521606 
	C367.412872,332.264008 365.781708,333.139038 363.812286,333.709045 
	C357.580414,335.512726 351.425995,337.634552 345.121521,339.125305 
	C334.940826,341.532654 325.536133,345.628723 316.833282,351.320831 
	C309.587952,356.059601 302.265625,360.740356 295.424652,366.025757 
	C278.964691,378.742981 262.291290,391.294403 249.688187,409.170990 
z"/>
<path fill="#000000" opacity="1.000000" stroke="none" 
	d="
M497.899323,402.722473 
	C512.043701,399.330505 525.726257,395.751129 540.119385,396.797119 
	C555.083740,397.884674 563.656677,405.393005 569.389221,421.927582 
	C573.539490,433.898254 576.689819,446.073914 578.312561,458.705872 
	C580.409729,475.030701 577.874268,490.908478 574.944885,506.816772 
	C574.831726,507.431152 574.803955,508.061249 574.721619,508.820770 
	C591.820740,502.161804 602.554993,478.172424 596.005371,461.634125 
	C593.689026,455.785065 589.714722,451.503845 583.682007,449.303711 
	C581.225281,448.407715 577.736145,447.700562 579.306580,444.120239 
	C580.705933,440.930176 583.836060,442.252747 586.344177,443.214691 
	C594.538757,446.357574 599.603760,452.478821 602.490723,460.546448 
	C608.249268,476.638763 602.811462,490.286041 592.853760,502.743927 
	C589.643494,506.760223 585.869324,510.352966 581.452942,513.156433 
	C579.119995,514.637329 576.801636,515.916687 573.684692,513.703247 
	C571.732605,520.681091 570.052612,527.235779 568.058594,533.693481 
	C564.518555,545.158081 560.622620,556.498718 554.892639,567.107483 
	C554.260620,568.277588 553.723389,569.522827 552.936462,570.580078 
	C551.611511,572.360291 550.031189,574.218140 547.575806,572.563416 
	C545.347412,571.061646 546.395264,569.010010 547.353760,567.223816 
	C559.312378,544.937622 565.760986,520.865173 570.104614,496.166595 
	C572.982422,479.803040 573.116394,463.368347 569.753967,447.005798 
	C569.554016,446.033020 569.286743,445.070557 568.983521,444.124878 
	C568.897766,443.857269 568.573364,443.666229 568.356689,443.438263 
	C554.727234,465.284180 532.255432,473.593201 509.611786,480.980133 
	C487.293365,488.260986 464.444519,493.786743 441.042114,496.597504 
	C429.855255,497.941132 418.835449,497.352661 408.098053,493.663910 
	C406.562653,495.959930 408.162689,497.643585 408.875183,499.362518 
	C414.630402,513.246948 422.050415,526.277100 429.498260,539.290649 
	C429.829132,539.868713 430.205719,540.420593 430.543182,540.995117 
	C431.616547,542.822571 432.481018,544.793335 430.239136,546.261047 
	C427.752747,547.888977 426.155396,546.154480 424.958862,544.222656 
	C422.679382,540.542480 420.434784,536.833618 418.352661,533.039551 
	C411.871185,521.228699 405.636810,509.290222 400.671783,496.891388 
	C398.082642,496.791138 397.532959,498.564240 396.908569,500.010773 
	C393.074860,508.892212 392.105621,517.967529 395.388245,527.253357 
	C396.707703,530.985779 398.621460,534.157227 402.743744,535.475403 
	C404.721863,536.107971 406.636078,537.283020 405.494415,539.835571 
	C404.520691,542.012512 402.563293,542.274292 400.391083,541.612793 
	C396.529510,540.436890 393.685455,538.032776 391.670013,534.583618 
	C383.842407,521.187988 385.549713,502.510742 395.824280,490.674866 
	C397.216858,489.070679 397.588898,487.696167 396.891876,485.740112 
	C395.462402,481.728607 395.623505,477.530762 395.865814,473.370392 
	C395.978760,471.430634 396.780762,469.651031 399.099213,469.652924 
	C401.435425,469.654785 402.528015,471.534698 402.216644,473.377197 
	C401.313934,478.718964 404.642975,481.539246 407.966919,484.667572 
	C411.721680,488.201294 416.136749,489.417542 421.107025,489.897247 
	C440.885529,491.806183 459.848328,487.214355 478.784058,482.713440 
	C498.730133,477.972382 518.485107,472.552887 536.761719,462.856110 
	C542.528564,459.796478 548.104187,456.399689 552.903320,452.013916 
	C560.149475,445.391968 564.797180,438.084991 562.775330,427.081512 
	C559.541992,409.485107 550.655640,401.844269 532.005676,403.354065 
	C513.463196,404.855164 495.561188,409.262573 478.253418,416.082001 
	C457.790375,424.144684 438.977081,435.015900 422.118805,449.179443 
	C417.026672,453.457642 411.723328,457.584351 410.234985,464.717682 
	C409.811249,466.748657 408.400238,468.499329 405.902985,467.770874 
	C403.379211,467.034668 403.417450,464.845062 403.885651,462.825409 
	C404.534668,460.025604 406.089569,457.679382 407.871613,455.416443 
	C422.318817,437.070374 441.980560,425.874359 462.447754,415.937561 
	C473.684357,410.482239 485.568634,406.520020 497.899323,402.722473 
z"/>
<path fill="#000000" opacity="1.000000" stroke="none" 
	d="
M672.103821,362.967163 
	C667.297119,361.042389 662.844727,359.267883 658.024780,357.346893 
	C656.373230,362.313080 657.189331,366.950073 657.109863,371.484528 
	C656.980103,378.879211 654.470215,382.880859 647.728577,385.773254 
	C642.511902,388.011383 638.877258,385.501740 638.656067,379.239716 
	C638.280029,368.595673 638.087708,357.945099 637.819153,347.297272 
	C637.756226,344.800354 637.553467,342.296875 637.665710,339.807678 
	C637.912109,334.344604 636.686340,330.166779 630.255981,329.343140 
	C627.649048,329.009216 626.529724,326.686523 625.849548,324.382233 
	C622.663269,313.586823 621.610474,302.524689 621.881958,291.311432 
	C621.950500,288.481384 623.217712,286.116241 626.158386,286.088501 
	C635.353394,286.001801 643.514221,281.631195 652.385315,280.174194 
	C665.678833,277.990845 671.266296,282.328064 671.213745,295.915833 
	C671.177979,305.155670 669.704163,314.098541 663.778687,321.696503 
	C663.574097,321.958923 663.440552,322.330505 663.176575,322.485077 
	C653.249390,328.298462 658.254333,337.888092 657.379272,345.928070 
	C657.055725,348.900360 660.229126,349.212250 662.291016,350.077728 
	C687.003357,360.450836 711.940613,370.307220 735.961304,382.264130 
	C751.516113,390.006897 766.151306,399.183990 779.764526,410.006592 
	C783.921692,413.311584 784.796570,417.317261 783.852600,421.971771 
	C782.175354,422.561859 781.447998,421.764709 780.708252,421.134674 
	C756.698975,400.685089 728.894714,386.832764 700.082275,374.730499 
	C690.873047,370.862274 681.666138,366.988586 672.103821,362.967163 
M643.580505,326.048706 
	C645.596619,329.488892 645.931396,333.331970 645.988892,337.161926 
	C646.156311,348.323242 646.135925,359.487396 646.304138,370.648712 
	C646.330078,372.369171 645.609070,374.525024 647.661804,375.910645 
	C648.802063,374.905609 648.726318,373.873199 648.726196,372.907043 
	C648.723938,357.079620 648.812805,341.250702 648.598328,325.425964 
	C648.555054,322.236725 649.288818,320.496124 652.406616,319.470428 
	C655.528748,318.443237 659.488525,317.301727 660.277405,313.969116 
	C661.875671,307.216736 663.678650,300.391754 662.955261,293.261230 
	C662.541321,289.180969 661.021851,287.398071 656.528870,287.931152 
	C648.838257,288.843658 641.761536,291.965149 634.265503,293.447998 
	C630.887695,294.116180 629.956360,295.888275 630.196045,299.033081 
	C630.677246,305.345825 631.242310,311.640594 632.388977,317.875031 
	C632.969177,321.029266 634.304749,323.086639 637.996399,322.757812 
	C640.129211,322.567810 641.810425,323.741547 643.580505,326.048706 
z"/>
<path fill="#000000" opacity="1.000000" stroke="none" 
	d="
M173.957153,573.228271 
	C161.660721,573.228210 149.846939,573.759888 138.065414,572.598633 
	C136.911224,572.484924 135.740433,572.308533 134.636551,571.968933 
	C132.904861,571.436157 131.643936,570.309692 131.866577,568.346069 
	C132.099548,566.291443 133.657303,565.628235 135.486832,565.744568 
	C139.634537,566.008301 143.769440,566.529114 147.919449,566.691162 
	C168.920914,567.511536 189.762848,565.319153 210.628021,563.385315 
	C231.959045,561.408386 252.076385,555.657776 270.748077,545.053955 
	C272.889923,543.837585 275.329559,542.816345 276.762207,545.677551 
	C278.205017,548.559204 275.698517,549.790771 273.651825,550.956116 
	C254.567398,561.821838 233.986389,567.990234 212.207932,570.148743 
	C199.643982,571.393982 187.037430,572.209290 173.957153,573.228271 
z"/>
<path fill="#000000" opacity="1.000000" stroke="none" 
	d="
M489.833130,571.676147 
	C503.592651,570.945801 516.246704,567.835754 528.019897,561.465820 
	C528.751282,561.070129 529.493469,560.693054 530.241455,560.329529 
	C532.388367,559.286316 534.806824,558.042175 536.397339,560.764099 
	C538.087769,563.656982 535.488342,565.012207 533.516602,566.114746 
	C523.703491,571.601990 513.262634,575.625793 502.126312,577.074585 
	C482.852875,579.582031 463.660065,577.676636 444.556549,574.795776 
	C440.760529,574.223267 437.227966,572.686646 433.647339,571.323975 
	C429.341766,569.685486 426.240906,567.550720 427.604370,562.156311 
	C428.131073,560.072510 426.287537,558.479797 425.679016,556.606567 
	C425.121918,554.891663 424.955566,553.224365 426.748322,552.215881 
	C428.507172,551.226501 430.044495,552.028625 431.070068,553.514526 
	C432.484894,555.564331 434.048920,557.616638 434.934540,559.905640 
	C437.217834,565.807434 441.837952,567.787231 447.609680,568.759216 
	C461.449951,571.090027 475.452087,570.734741 489.833130,571.676147 
z"/>
<path fill="#000000" opacity="1.000000" stroke="none" 
	d="
M531.745728,598.949402 
	C533.054749,595.349976 534.663818,593.437195 538.584778,595.308167 
	C540.947876,596.435730 543.890564,595.169861 546.411316,596.346191 
	C552.234009,599.063416 554.414673,604.348389 555.066772,610.065247 
	C556.588806,623.410461 551.763916,635.234253 545.198730,646.466370 
	C544.190796,648.190796 542.524902,649.834106 540.262939,648.420288 
	C538.105774,647.072021 538.585327,644.968506 539.627441,643.114807 
	C543.563293,636.113953 546.719971,628.820435 548.252991,620.893921 
	C549.218323,615.902649 549.155884,611.018250 547.121460,606.217529 
	C545.716858,602.903015 543.019165,602.126038 539.889099,601.953003 
	C536.304932,601.754822 536.654114,604.945862 536.183838,606.858337 
	C532.898071,620.221558 528.638794,633.563171 533.535706,647.480652 
	C534.159668,649.254028 533.737427,650.950378 531.922424,651.671875 
	C529.478882,652.643433 528.165771,650.890015 527.307983,649.014587 
	C524.292908,642.422852 524.257385,635.401245 525.051819,628.434937 
	C526.183411,618.512268 528.191223,608.740112 531.745728,598.949402 
z"/>
<path fill="#000000" opacity="1.000000" stroke="none" 
	d="
M197.113861,616.201416 
	C196.541046,609.113770 197.356995,602.499023 198.275772,595.938416 
	C198.658295,593.206909 198.068039,588.337402 202.786301,589.259949 
	C206.756699,590.036255 205.080917,594.114319 204.755295,596.924988 
	C203.349030,609.063538 203.449707,621.118286 206.471863,633.038269 
	C207.824554,638.373535 210.002411,643.404053 212.225876,648.415588 
	C213.204849,650.622070 214.255020,653.156250 211.392853,654.457397 
	C208.478378,655.782227 207.320145,653.122559 206.292191,651.058044 
	C200.890701,640.209961 198.055496,628.669800 197.113861,616.201416 
z"/>
<path fill="#000000" opacity="1.000000" stroke="none" 
	d="
M157.611404,626.403320 
	C153.880096,619.241394 149.706970,612.841003 144.019394,607.565552 
	C139.198685,603.094116 133.928589,599.364197 127.197891,598.376404 
	C125.043228,598.060242 123.010406,597.413330 123.373795,594.808472 
	C123.709030,592.405518 125.825775,591.834290 127.952843,591.884155 
	C130.486359,591.943420 132.885742,592.752380 135.140778,593.823242 
	C153.380585,602.484741 162.572647,618.287598 168.657211,636.502930 
	C169.329224,638.514709 168.728867,640.237732 166.614105,640.916931 
	C164.357544,641.641602 163.235382,640.094666 162.483047,638.291138 
	C160.882141,634.453369 159.339645,630.591248 157.611404,626.403320 
z"/>
<path fill="#000000" opacity="1.000000" stroke="none" 
	d="
M218.476654,603.584778 
	C217.134277,600.279663 215.511215,597.603943 213.343765,595.246399 
	C211.889755,593.664734 210.879990,591.817017 212.928375,590.063782 
	C214.853775,588.415771 216.738907,589.435669 218.243835,590.902100 
	C222.683838,595.228271 224.776108,600.857117 226.522125,606.599976 
	C230.294724,619.008484 231.220718,631.690369 229.755142,644.551819 
	C229.568848,646.186584 229.173767,647.835327 228.606461,649.378723 
	C228.001053,651.025696 226.809052,652.345947 224.836380,651.896362 
	C222.947144,651.465942 222.210052,649.935242 222.340027,648.097839 
	C222.468750,646.278076 222.757065,644.467651 223.018661,642.659485 
	C224.941803,629.366211 223.006744,616.513855 218.476654,603.584778 
z"/>
<path fill="#000000" opacity="1.000000" stroke="none" 
	d="
M493.871216,644.911255 
	C496.371552,632.170105 496.576813,619.756409 495.205566,607.311951 
	C494.806030,603.685974 494.020172,600.112671 491.538727,597.142761 
	C490.229584,595.575928 489.996277,593.690979 491.776001,592.286682 
	C493.583252,590.860657 495.232300,591.824097 496.632721,593.186951 
	C499.370941,595.851746 500.572632,599.278381 501.315826,602.911499 
	C504.331696,617.654602 503.130676,632.314270 500.342987,646.922913 
	C499.829620,649.613220 499.523560,653.478638 495.721588,652.737183 
	C491.307129,651.876221 493.389252,648.112305 493.871216,644.911255 
z"/>
<path fill="#000000" opacity="1.000000" stroke="none" 
	d="
M455.798065,637.315674 
	C454.080719,621.869751 447.928680,609.490723 434.903473,601.098572 
	C433.037140,599.896057 431.053253,598.285522 432.532745,595.856750 
	C434.222321,593.083130 436.626373,594.475586 438.620453,595.735779 
	C453.223724,604.964722 460.153107,618.809509 462.269043,635.465271 
	C462.644257,638.418945 462.856598,641.439209 462.683594,644.401733 
	C462.550507,646.682007 461.999268,649.484802 458.851990,649.246399 
	C456.036041,649.033142 455.964050,646.457214 455.890228,644.259338 
	C455.817657,642.097595 455.840820,639.932617 455.798065,637.315674 
z"/>
<path fill="#000000" opacity="1.000000" stroke="none" 
	d="
M281.446045,602.559570 
	C281.965027,611.231140 280.776367,619.239258 277.947754,626.979004 
	C277.144043,629.178162 275.946808,631.768372 273.016693,630.636475 
	C270.111237,629.514038 271.037903,626.903198 271.775421,624.618164 
	C275.053925,614.460938 276.334747,604.185181 273.222504,593.745850 
	C271.813110,589.018372 269.522278,585.135742 263.670135,585.242065 
	C261.803162,585.276062 260.334686,584.221497 260.212738,582.323547 
	C260.067688,580.064758 261.817871,579.176514 263.747711,578.867432 
	C267.824005,578.214661 271.278931,579.480774 274.139862,582.454956 
	C279.433258,587.957825 280.885956,594.869446 281.446045,602.559570 
z"/>
<path fill="#000000" opacity="1.000000" stroke="none" 
	d="
M478.635315,623.977173 
	C478.437531,614.628967 479.510406,605.920532 481.917358,597.406189 
	C482.556793,595.144104 483.023987,591.819275 486.494141,592.794495 
	C489.684509,593.691101 488.931335,596.483032 488.318848,599.047668 
	C484.561920,614.778809 482.917847,630.474670 489.608124,645.928162 
	C490.404846,647.768433 490.605927,649.625732 488.591522,650.715942 
	C486.244507,651.986145 484.751770,650.392395 483.802460,648.551208 
	C479.912140,641.005798 478.471893,632.902283 478.635315,623.977173 
z"/>
<path fill="#000000" opacity="1.000000" stroke="none" 
	d="
M430.884705,600.221680 
	C435.631897,612.900574 440.182068,625.234680 450.659760,634.138672 
	C452.127350,635.385864 452.930756,637.200500 451.323639,638.949524 
	C449.540619,640.889954 447.618530,639.960449 445.999084,638.672791 
	C439.054230,633.150757 434.702850,625.675415 430.952362,617.867920 
	C428.585480,612.940735 426.713196,607.769714 424.749817,602.657837 
	C423.900909,600.447632 422.082092,597.653137 425.383820,596.179321 
	C428.502289,594.787415 429.709991,597.498047 430.884705,600.221680 
z"/>
<path fill="#000000" opacity="1.000000" stroke="none" 
	d="
M255.448380,614.381958 
	C255.033997,619.693115 255.894928,624.451660 256.717651,629.204163 
	C257.122864,631.544983 257.109131,633.864014 254.390381,634.422974 
	C251.565277,635.003845 250.670990,632.530701 250.225845,630.425842 
	C247.247528,616.342834 249.452942,602.637756 253.561920,589.118469 
	C254.179352,587.087036 255.513916,585.336853 257.978882,586.315186 
	C260.285614,587.230652 260.332794,589.323730 259.701447,591.406433 
	C257.471191,598.763855 256.478760,606.349976 255.448380,614.381958 
z"/>
<path fill="#000000" opacity="1.000000" stroke="none" 
	d="
M135.360611,629.853638 
	C128.396332,622.850464 122.326477,615.610596 117.861084,607.164795 
	C116.640778,604.856750 113.802567,601.997070 117.657753,599.974060 
	C120.932762,598.255493 122.175858,601.556091 123.478409,603.817261 
	C127.979744,611.631470 133.327805,618.772766 139.863266,625.026184 
	C141.546814,626.637085 144.465988,628.397522 142.092957,631.142883 
	C139.892136,633.689087 137.600189,631.736084 135.360611,629.853638 
z"/>
<path fill="#000000" opacity="1.000000" stroke="none" 
	d="
M813.638672,228.743805 
	C807.830383,230.460205 802.421814,232.094421 796.986572,233.634811 
	C794.137817,234.442154 790.947693,234.931610 789.850281,231.354523 
	C788.604065,227.292755 792.014893,226.294312 794.937134,225.481934 
	C808.544800,221.699081 822.173279,217.991272 835.797791,214.269028 
	C838.334900,213.575882 841.058533,213.176956 842.112976,216.287704 
	C843.253845,219.653580 840.683228,221.294434 838.071533,222.060837 
	C830.101257,224.399704 822.048218,226.456268 813.638672,228.743805 
z"/>
<path fill="#000000" opacity="1.000000" stroke="none" 
	d="
M743.637085,314.769470 
	C741.970886,310.017090 743.364014,307.695312 747.991333,307.895538 
	C753.451416,308.131775 758.889587,308.969452 764.325806,309.638855 
	C772.402588,310.633453 780.467346,311.724823 788.541382,312.742279 
	C791.485046,313.113251 794.758118,313.692993 794.298401,317.409454 
	C793.875244,320.830963 790.719727,321.431122 787.670288,321.033386 
	C776.811279,319.617065 765.938904,318.277954 755.118835,316.603821 
	C751.388062,316.026581 747.401550,317.257355 743.637085,314.769470 
z"/>
<path fill="#000000" opacity="1.000000" stroke="none" 
	d="
M747.515930,220.376083 
	C751.048828,221.540634 754.244934,222.470505 757.356018,223.628830 
	C759.516907,224.433395 761.301270,225.882065 760.431274,228.516129 
	C759.624451,230.959106 757.466736,231.635910 755.153931,231.137146 
	C752.399719,230.543213 749.698181,229.678528 747.005493,228.830566 
	C738.602966,226.184479 730.213318,223.497238 721.824768,220.806992 
	C720.878235,220.503433 719.905334,220.189377 719.057251,219.689270 
	C716.834534,218.378464 715.505615,216.497116 716.636902,213.883804 
	C717.826904,211.135239 720.030640,211.273071 722.521667,212.115479 
	C730.708191,214.883987 738.932861,217.539795 747.515930,220.376083 
z"/>
<path fill="#000000" opacity="1.000000" stroke="none" 
	d="
M804.652588,269.481201 
	C804.458008,272.085297 804.374817,274.240448 804.182068,276.385712 
	C803.961182,278.844421 803.245239,281.219543 800.305847,281.287964 
	C797.094971,281.362640 796.231018,278.844147 795.997009,276.220551 
	C795.806213,274.081421 795.785645,271.901917 795.952454,269.760773 
	C796.518188,262.499786 797.174805,255.245514 797.851501,247.993759 
	C798.111267,245.209320 798.889099,242.264709 802.239502,242.385071 
	C806.027588,242.521164 806.285645,245.827087 806.131592,248.710999 
	C805.769348,255.489166 805.200684,262.256287 804.652588,269.481201 
z"/>
<path fill="#000000" opacity="1.000000" stroke="none" 
	d="
M736.971924,245.830750 
	C736.599243,243.219162 737.175842,241.358185 739.540039,240.793823 
	C742.327637,240.128387 743.938293,242.024918 745.024475,244.127441 
	C747.982788,249.854172 748.179321,256.251404 749.059814,262.456451 
	C749.570129,266.052155 749.723938,269.703522 749.927551,273.336029 
	C750.078552,276.030304 749.421997,278.614136 746.286804,278.874115 
	C743.185730,279.131256 742.047913,276.743256 741.723267,274.049042 
	C741.109314,268.953156 740.507751,263.853729 740.039307,258.743073 
	C739.642517,254.414322 738.738037,250.233459 736.971924,245.830750 
z"/>
<path fill="#000000" opacity="1.000000" stroke="none" 
	d="
M647.997192,306.501648 
	C647.881531,303.259766 647.732910,300.455963 647.765442,297.654236 
	C647.788330,295.682526 648.645203,294.039459 650.736938,293.630554 
	C653.064514,293.175568 654.597717,294.487610 655.274353,296.553650 
	C656.795166,301.197205 656.548767,306.002869 655.994446,310.752747 
	C655.793396,312.476532 654.420898,313.706879 652.518372,313.699707 
	C650.898438,313.693604 649.661438,312.787384 649.129272,311.248749 
	C648.646851,309.854156 648.395142,308.379791 647.997192,306.501648 
z"/>
<path fill="#000000" opacity="1.000000" stroke="none" 
	d="
M640.907532,313.862976 
	C637.895386,310.025757 637.688965,305.940765 638.833435,301.837982 
	C639.708923,298.699249 643.312683,297.883057 644.873779,300.506744 
	C646.931274,303.964752 647.586182,308.031677 646.465149,311.958252 
	C645.789978,314.323242 643.660034,315.080505 640.907532,313.862976 
z"/>
</svg>